PathFileType  4	(X/Y/Z) C:\Users\antoi\Documents\MyRepositories\mobilecap\ResultsAnalysis
DataRate	CameraRate	NumFrames	NumMarkers	Units	OrigDataRate	OrigDataStartFrame	OrigNumFrames
100.0	100.0	6	55	mm	100.0	89	704
Frame#	Time	r_knee			r_shank_antsup			r_ankle			r_calc			r_5meta			r_toe			L_knee			L_shank_antsup			L_ankle			L_calc			L_5meta			L_toe			r_mknee			r_mankle			L_mknee			L_mankle			r_sh2			r_sh3			r_sh4			L_sh2			L_sh3			r_thigh1			r_thigh2			r_thigh3			r_thigh4			r_thigh5			L_thigh1			L_thigh2			L_thigh3			L_thigh4			r.ASIS			r.PSIS			L.ASIS			L.PSIS			C7			R_Shoulder			L_Shoulder			R_Sternum			L_Sternum			R_humerus			R_elbow_med			R_elbow_lat			R_forearm			R_wrist_radius			R_wrist_ulna			L_humerus			L_elbow_med			L_elbow_lat			L_forearm			L_wrist_radius			L_wrist_ulna			R_HJC			L_HJC			R_HJC_reg			L_HJC_reg			
		X1	Y1	Z1	X2	Y2	Z2	X3	Y3	Z3	X4	Y4	Z4	X5	Y5	Z5	X6	Y6	Z6	X7	Y7	Z7	X8	Y8	Z8	X9	Y9	Z9	X10	Y10	Z10	X11	Y11	Z11	X12	Y12	Z12	X13	Y13	Z13	X14	Y14	Z14	X15	Y15	Z15	X16	Y16	Z16	X17	Y17	Z17	X18	Y18	Z18	X19	Y19	Z19	X20	Y20	Z20	X21	Y21	Z21	X22	Y22	Z22	X23	Y23	Z23	X24	Y24	Z24	X25	Y25	Z25	X26	Y26	Z26	X27	Y27	Z27	X28	Y28	Z28	X29	Y29	Z29	X30	Y30	Z30	X31	Y31	Z31	X32	Y32	Z32	X33	Y33	Z33	X34	Y34	Z34	X35	Y35	Z35	X36	Y36	Z36	X37	Y37	Z37	X38	Y38	Z38	X39	Y39	Z39	X40	Y40	Z40	X41	Y41	Z41	X42	Y42	Z42	X43	Y43	Z43	X44	Y44	Z44	X45	Y45	Z45	X46	Y46	Z46	X47	Y47	Z47	X48	Y48	Z48	X49	Y49	Z49	X50	Y50	Z50	X51	Y51	Z51	X52	Y52	Z52	X53	Y53	Z53	X54	Y54	Z54	X55	Y55	Z55	

89	0.88000000	-212.23035	500.88182	-441.92453	-181.34856	457.59471	-447.81888	-262.04658	96.08210	-469.84667	-317.78706	59.03895	-523.01219	-142.60140	40.82505	-425.92590	-96.06086	60.57096	-478.01368	-208.24765	497.92224	-784.58481	-192.68165	415.33710	-796.07899	-262.36111	98.24684	-752.16303	-322.65852	57.62081	-699.08836	-145.59937	41.50531	-781.79342	-101.05565	59.14227	-728.86681	-221.26926	489.12926	-566.25192	-227.65002	109.02374	-547.25500	-208.94538	485.94768	-657.88961	-232.15897	110.84959	-672.17573	-189.12719	342.22599	-458.77543	-250.20805	458.87524	-412.40651	-257.60121	342.30930	-410.05498	-279.35232	432.10998	-807.53684	-289.59004	309.91320	-803.21578	-79.08460	783.92481	-507.93248	-88.20095	672.95718	-495.07460	-116.23909	660.62303	-433.69862	-144.70036	800.62297	-417.38907	-160.28693	687.63738	-407.35804	-121.46457	821.22414	-789.31730	-134.97365	677.85733	-800.02531	-234.82633	827.44411	-786.69901	-247.03181	688.65059	-781.76793	-83.82787	969.99221	-484.30660	-272.94612	1000.40315	-561.57797	-81.95525	957.23378	-722.96909	-273.78898	999.29435	-660.62181	-261.49179	1457.20109	-617.81007	-199.79438	1430.46872	-453.48493	-214.15880	1422.93887	-777.51230	-133.62635	1382.76371	-598.69817	-134.12578	1382.04908	-636.26799	-187.14264	1195.60108	-361.26888	-229.89773	1102.32888	-400.07074	-214.29605	1107.60942	-341.69389	-161.23209	983.02878	-295.94914	-119.49806	884.31990	-287.31996	-161.83580	881.14502	-273.89736	-216.09488	1195.17278	-869.61880	-220.29304	1089.72944	-814.31078	-237.58527	1095.29412	-871.86026	-193.11567	976.84153	-936.37878	-144.90499	880.00704	-959.89653	-185.31701	869.03654	-952.80077	-156.91209	886.80190	-518.41456	-167.68223	887.94896	-708.77807	-151.38513	892.34428	-516.07503	-152.72780	890.57860	-673.80634	
90	0.89000000	-212.26210	500.83850	-441.99710	-181.32833	457.57501	-447.80236	-262.00074	96.16365	-469.78885	-317.76364	59.05348	-523.01852	-142.59202	40.80942	-425.92926	-96.06976	60.57399	-478.01751	-208.24770	497.91278	-784.57828	-192.68370	415.33361	-796.08956	-262.37094	98.24921	-752.15871	-322.65933	57.61012	-699.09566	-145.59984	41.49966	-781.79230	-101.05754	59.13862	-728.87221	-221.26476	489.20510	-566.20513	-227.64785	109.00767	-547.25598	-209.02479	485.91045	-657.98617	-232.15369	110.86159	-672.19081	-189.10403	342.22425	-458.75723	-250.13765	458.83516	-412.47131	-257.59060	342.27236	-410.06830	-279.34814	432.10190	-807.53447	-289.59502	309.90142	-803.18815	-79.07912	783.91306	-507.94603	-88.18744	672.95361	-495.08995	-116.19017	660.63229	-433.65202	-144.66090	800.63770	-417.41827	-160.26850	687.64976	-407.29559	-121.48303	821.24823	-789.33219	-134.72843	677.77486	-800.15591	-234.79320	827.38734	-786.59029	-247.05954	688.64327	-781.75225	-83.84962	969.94915	-484.33112	-272.93927	1000.35197	-561.53513	-81.95731	957.23011	-722.97144	-273.76264	999.26214	-660.57625	-261.48973	1457.19728	-617.81904	-199.79366	1430.48692	-453.45527	-214.15466	1422.92372	-777.52086	-133.63954	1382.74256	-598.68270	-134.34296	1381.60437	-636.75993	-187.10302	1195.62624	-361.28369	-229.88301	1102.36166	-400.06325	-214.22287	1107.61716	-341.71123	-161.16088	983.04077	-295.95691	-119.43707	884.31582	-287.36893	-161.72527	881.20204	-273.85493	-216.09694	1195.15008	-869.63292	-220.29644	1089.77422	-814.33662	-237.59788	1095.31753	-871.94683	-193.14051	976.84662	-936.34916	-144.94720	879.98805	-959.91022	-185.35588	869.00925	-952.82774	-156.89436	886.75334	-518.41996	-167.68144	887.93746	-708.78228	-151.39712	892.30209	-516.12370	-152.70849	890.56676	-673.83974	
91	0.90000000	-212.27302	500.78409	-442.01328	-181.30621	457.57136	-447.78651	-261.94847	96.22596	-469.76549	-317.78906	59.02573	-523.01751	-142.58693	40.83245	-425.93850	-96.08704	60.55244	-478.02700	-208.25357	497.89256	-784.57231	-192.68915	415.32173	-796.10060	-262.37111	98.26963	-752.17510	-322.66102	57.59803	-699.10487	-145.60357	41.47919	-781.80009	-101.06057	59.12676	-728.87934	-221.26378	489.25868	-566.17628	-227.64649	108.99071	-547.26222	-209.07613	485.88323	-658.03867	-232.15762	110.85924	-672.18448	-189.11038	342.21287	-458.77762	-250.14932	458.77873	-412.47012	-257.54096	342.30389	-410.01230	-279.35466	432.08973	-807.53201	-289.58681	309.89711	-803.18720	-79.09072	783.88980	-507.95430	-88.16829	672.95522	-495.11541	-116.14339	660.64213	-433.62871	-144.60372	800.65487	-417.44370	-160.25113	687.67461	-407.24995	-121.50473	821.29115	-789.35486	-134.79637	677.73228	-800.06880	-234.81061	827.40138	-786.55354	-247.05923	688.62574	-781.75052	-83.85976	969.93468	-484.34563	-272.94410	1000.30404	-561.48978	-81.96254	957.22611	-722.97069	-273.72707	999.25612	-660.49922	-261.49284	1457.19508	-617.83444	-199.79907	1430.49642	-453.45571	-214.14800	1422.90289	-777.52340	-133.67205	1382.74578	-598.66121	-134.50173	1381.33067	-637.08385	-187.07650	1195.64668	-361.30229	-229.81945	1102.35355	-400.04841	-214.16631	1107.59677	-341.77072	-161.11300	983.11455	-295.94973	-119.35529	884.34211	-287.41926	-161.58869	881.25045	-273.80111	-216.11608	1195.11157	-869.57524	-220.28551	1089.83157	-814.37318	-237.60321	1095.32002	-872.00852	-193.13977	976.85427	-936.37370	-144.97402	879.97166	-959.92195	-185.35767	869.01624	-952.84886	-156.87116	886.72487	-518.40850	-167.68398	887.93386	-708.76920	-151.40616	892.23405	-516.19354	-152.65335	890.56499	-673.90046	
92	0.91000000	-212.23955	500.76818	-441.96622	-181.28414	457.59020	-447.78004	-261.93991	96.22559	-469.78002	-317.82356	58.98902	-523.01462	-142.57711	40.85501	-425.93014	-96.09574	60.52803	-478.03264	-208.26014	497.87400	-784.57368	-192.69112	415.30955	-796.10743	-262.39235	98.29491	-752.18735	-322.66189	57.58709	-699.11448	-145.61810	41.45312	-781.80351	-101.05771	59.11610	-728.90424	-221.26320	489.26176	-566.17570	-227.65511	108.98410	-547.27228	-209.01500	485.91122	-657.95979	-232.16096	110.86466	-672.18792	-189.12958	342.18530	-458.77751	-250.16105	458.79768	-412.43532	-257.49691	342.35063	-409.94851	-279.36386	432.07637	-807.52662	-289.57416	309.90264	-803.20725	-79.07744	783.88900	-507.93514	-88.15178	672.95244	-495.12640	-116.10007	660.65429	-433.61412	-144.56166	800.65559	-417.46513	-160.25220	687.69033	-407.23438	-121.50583	821.30206	-789.35564	-134.89500	677.72960	-800.03641	-234.83943	827.44605	-786.56564	-247.04231	688.62060	-781.75555	-83.82443	969.98044	-484.33218	-272.91962	1000.29829	-561.47152	-81.97073	957.22327	-722.97127	-273.74258	999.29081	-660.40959	-261.49393	1457.19015	-617.85251	-199.80240	1430.49303	-453.47293	-214.14984	1422.88536	-777.53034	-133.69598	1382.75617	-598.63630	-134.54145	1381.31851	-637.11506	-187.05885	1195.67053	-361.30581	-229.73328	1102.34211	-400.02799	-214.12841	1107.57176	-341.80919	-161.03707	983.17519	-295.94426	-119.24403	884.42158	-287.44294	-161.45041	881.27238	-273.81937	-216.11407	1195.10719	-869.57387	-220.27715	1089.83471	-814.38175	-237.59634	1095.30159	-872.02480	-193.11744	976.85006	-936.43535	-144.98736	879.95753	-959.93150	-185.36015	869.02768	-952.88604	-156.83652	886.75321	-518.37336	-167.69615	887.94137	-708.73153	-151.32976	892.18812	-516.18215	-152.64165	890.58208	-673.89993	
93	0.92000000	-212.20936	500.77892	-441.93927	-181.28852	457.61808	-447.79366	-261.98468	96.16464	-469.80632	-317.82975	58.96738	-523.01947	-142.56926	40.82087	-425.89285	-96.09648	60.51661	-478.03965	-208.26332	497.86062	-784.57426	-192.69231	415.30344	-796.10854	-262.39732	98.29297	-752.18845	-322.66246	57.57704	-699.12646	-145.64602	41.44207	-781.78615	-101.05502	59.10107	-728.91969	-221.25783	489.25221	-566.17984	-227.65886	108.96987	-547.27733	-209.00612	485.91782	-657.95034	-232.16427	110.86263	-672.18482	-189.12586	342.16117	-458.75849	-250.06126	458.87042	-412.41260	-257.48241	342.32062	-409.96837	-279.36895	432.06649	-807.52352	-289.57672	309.90017	-803.22678	-79.04303	783.89962	-507.92227	-88.14702	672.93291	-495.12656	-116.07788	660.65161	-433.60926	-144.53357	800.61883	-417.48470	-160.26632	687.70036	-407.16578	-121.50082	821.29311	-789.34682	-134.84295	677.72719	-800.13037	-234.82477	827.44275	-786.51032	-247.03817	688.61699	-781.75455	-83.78823	970.02611	-484.32176	-272.87561	1000.30542	-561.47113	-81.97776	957.22054	-722.97716	-273.77049	999.32499	-660.38794	-261.49040	1457.17650	-617.86487	-199.80069	1430.47289	-453.50358	-214.16555	1422.88183	-777.54459	-133.71457	1382.73915	-598.62805	-134.54818	1381.34060	-637.07749	-187.02153	1195.69654	-361.30839	-229.69172	1102.36326	-400.02369	-214.08665	1107.55290	-341.82653	-160.93503	983.18071	-295.98680	-119.14207	884.49162	-287.45008	-161.32491	881.28771	-273.90534	-216.08437	1195.12633	-869.65227	-220.26929	1089.81535	-814.37830	-237.58145	1095.28138	-872.03212	-193.09706	976.84138	-936.48572	-144.99211	879.94258	-959.94986	-185.39664	869.04235	-952.95125	-156.81041	886.78752	-518.35611	-167.70137	887.94737	-708.71267	-151.23608	892.16393	-516.14323	-152.66302	890.60049	-673.87262	
94	0.93000000	-212.20379	500.77810	-441.95409	-181.28558	457.64765	-447.81095	-262.01254	96.11116	-469.82025	-317.81707	58.96383	-523.02710	-142.57725	40.76885	-425.86549	-96.09538	60.51954	-478.04071	-208.26609	497.85131	-784.56744	-192.69670	415.30267	-796.10389	-262.36558	98.26010	-752.18780	-322.66247	57.56372	-699.13762	-145.66100	41.44407	-781.77548	-101.06028	59.08687	-728.91117	-221.25067	489.25479	-566.18235	-227.63877	108.93361	-547.27141	-209.13088	485.85905	-658.09951	-232.17266	110.83180	-672.14814	-189.10298	342.15623	-458.77102	-249.96409	458.85076	-412.40292	-257.47723	342.22627	-410.04288	-279.37004	432.06708	-807.52637	-289.58856	309.87943	-803.22909	-79.01982	783.89299	-507.92684	-88.14622	672.91024	-495.13438	-116.05655	660.65751	-433.58770	-144.50082	800.58344	-417.48971	-160.23595	687.74102	-407.11756	-121.50110	821.29128	-789.34550	-134.80930	677.72349	-800.16424	-234.79607	827.40997	-786.42332	-247.04325	688.59945	-781.75438	-83.79696	970.01297	-484.33226	-272.85309	1000.29630	-561.46065	-81.97956	957.21909	-722.98447	-273.77121	999.33230	-660.40690	-261.48622	1457.15835	-617.87677	-199.79786	1430.45319	-453.53734	-214.18343	1422.88274	-777.55452	-133.76745	1382.67711	-598.68631	-134.57000	1381.29507	-637.09110	-186.94701	1195.71395	-361.32420	-229.69228	1102.40569	-400.03481	-214.02863	1107.54809	-341.85375	-160.84415	983.16753	-296.05523	-119.04355	884.50532	-287.49477	-161.18357	881.31307	-273.96757	-216.06674	1195.12797	-869.71119	-220.25903	1089.81063	-814.38631	-237.56400	1095.26581	-872.04955	-193.08317	976.84768	-936.53624	-144.98266	879.92878	-959.99201	-185.42753	869.06309	-953.01422	-156.81111	886.77659	-518.36914	-167.70355	887.94952	-708.72553	-151.21712	892.14214	-516.14964	-152.68067	890.60541	-673.87650	
